<svg width="36" height="36" viewBox="0 0 36 36" fill="none" xmlns="http://www.w3.org/2000/svg">
<path d="M34.8795 5.49088C35.0897 5.70176 35.2077 5.98738 35.2077 6.28513C35.2077 6.58289 35.0897 6.86851 34.8795 7.07938L32.5327 9.42838L28.0327 4.92838L30.3795 2.57938C30.5904 2.36848 30.8765 2.25 31.1748 2.25C31.4732 2.25 31.7593 2.36848 31.9702 2.57938L34.8795 5.48863V5.49088ZM30.942 11.0169L26.442 6.51688L11.1127 21.8484C10.9889 21.9722 10.8957 22.1232 10.8405 22.2894L9.02922 27.7209C8.99637 27.8199 8.99171 27.9261 9.01575 28.0276C9.03979 28.1291 9.09159 28.222 9.16536 28.2957C9.23913 28.3695 9.33196 28.4213 9.43348 28.4454C9.535 28.4694 9.6412 28.4647 9.74022 28.4319L15.1717 26.6206C15.3377 26.5661 15.4887 26.4737 15.6127 26.3506L30.942 11.0191V11.0169Z" fill="#F6F6F6"/>
<path fill-rule="evenodd" clip-rule="evenodd" d="M2.25 31.501C2.25 32.3961 2.60558 33.2545 3.23851 33.8875C3.87145 34.5204 4.72989 34.876 5.625 34.876H30.375C31.2701 34.876 32.1286 34.5204 32.7615 33.8875C33.3944 33.2545 33.75 32.3961 33.75 31.501V18.001C33.75 17.7026 33.6315 17.4165 33.4205 17.2055C33.2095 16.9945 32.9234 16.876 32.625 16.876C32.3266 16.876 32.0405 16.9945 31.8295 17.2055C31.6185 17.4165 31.5 17.7026 31.5 18.001V31.501C31.5 31.7993 31.3815 32.0855 31.1705 32.2965C30.9595 32.5075 30.6734 32.626 30.375 32.626H5.625C5.32663 32.626 5.04048 32.5075 4.82951 32.2965C4.61853 32.0855 4.5 31.7993 4.5 31.501V6.75098C4.5 6.45261 4.61853 6.16646 4.82951 5.95548C5.04048 5.7445 5.32663 5.62598 5.625 5.62598H20.25C20.5484 5.62598 20.8345 5.50745 21.0455 5.29647C21.2565 5.08549 21.375 4.79935 21.375 4.50098C21.375 4.20261 21.2565 3.91646 21.0455 3.70548C20.8345 3.4945 20.5484 3.37598 20.25 3.37598H5.625C4.72989 3.37598 3.87145 3.73156 3.23851 4.36449C2.60558 4.99743 2.25 5.85587 2.25 6.75098V31.501Z" fill="#F6F6F6"/>
</svg>
