<svg width="48" height="48" viewBox="0 0 48 48" fill="none" xmlns="http://www.w3.org/2000/svg">
<path d="M40 6H8C5.794 6 4 7.794 4 10V38C4 40.206 5.794 42 8 42H40C42.206 42 44 40.206 44 38V10C44 7.794 42.206 6 40 6ZM8 38V14H40L40.004 38H8Z" fill="#F6F6F6"/>
<path d="M18.586 18.5859L11.172 25.9999L18.586 33.4139L21.414 30.5859L16.828 25.9999L21.414 21.4139L18.586 18.5859ZM29.414 18.5859L26.586 21.4139L31.172 25.9999L26.586 30.5859L29.414 33.4139L36.828 25.9999L29.414 18.5859Z" fill="#F6F6F6"/>
</svg>
