<svg width="36" height="36" viewBox="0 0 36 36" fill="none" xmlns="http://www.w3.org/2000/svg">
<path d="M32.33 5.99979C32.1937 5.98575 32.0563 5.98575 31.92 5.99979H3.92001C3.74056 6.00256 3.56229 6.02947 3.39001 6.07979L17.84 20.4698L32.33 5.99979Z" fill="#F6F6F6"/>
<path d="M33.8101 7.39014L19.2501 21.8901C18.8753 22.2626 18.3684 22.4717 17.8401 22.4717C17.3117 22.4717 16.8048 22.2626 16.4301 21.8901L2.00005 7.50014C1.95569 7.66318 1.93217 7.83118 1.93005 8.00014V28.0001C1.93005 28.5306 2.14077 29.0393 2.51584 29.4144C2.89091 29.7894 3.39962 30.0001 3.93005 30.0001H31.9301C32.4605 30.0001 32.9692 29.7894 33.3443 29.4144C33.7193 29.0393 33.9301 28.5306 33.9301 28.0001V8.00014C33.9221 7.79179 33.8816 7.58597 33.8101 7.39014ZM5.30005 28.0001H3.91005V26.5701L11.1801 19.3601L12.5901 20.7701L5.30005 28.0001ZM31.9101 28.0001H30.5101L23.2201 20.7701L24.6301 19.3601L31.9001 26.5701L31.9101 28.0001Z" fill="#F6F6F6"/>
</svg>
