<svg width="64" height="64" viewBox="0 0 64 64" fill="none" xmlns="http://www.w3.org/2000/svg">
<g filter="url(#filter0_d_22_18)">
<circle cx="28" cy="28" r="28" fill="#C4C4C4"/>
</g>
<path d="M45 19.0333C43.7996 19.5549 42.5296 19.8985 41.23 20.0533C42.5958 19.2536 43.6229 17.9831 44.1187 16.48C42.8274 17.2351 41.417 17.7649 39.948 18.0467C39.3294 17.3984 38.5854 16.8826 37.7613 16.5308C36.9372 16.1789 36.0501 15.9984 35.154 16C31.526 16 28.59 18.8933 28.59 22.46C28.5874 22.9561 28.6443 23.4508 28.7593 23.9333C26.1578 23.8114 23.6104 23.1477 21.28 21.9848C18.9496 20.822 16.8877 19.1855 15.226 17.18C14.643 18.1628 14.3348 19.284 14.3333 20.4267C14.3333 22.6667 15.502 24.6467 17.2667 25.8067C16.2212 25.7819 15.1971 25.5051 14.2813 25V25.08C14.2813 28.2133 16.548 30.82 19.548 31.4133C18.9839 31.5637 18.4025 31.6399 17.8187 31.64C17.4044 31.6407 16.991 31.6005 16.5847 31.52C17.4187 34.0867 19.846 35.9533 22.7213 36.0067C20.3849 37.8073 17.5164 38.7805 14.5667 38.7733C14.0431 38.7726 13.52 38.7414 13 38.68C16.0008 40.5962 19.489 41.6097 23.0493 41.6C35.14 41.6 41.7453 31.7533 41.7453 23.2133C41.7453 22.9333 41.738 22.6533 41.7247 22.38C43.0067 21.4681 44.1159 20.3348 45 19.0333Z" fill="black"/>
<defs>
<filter id="filter0_d_22_18" x="0" y="0" width="64" height="64" filterUnits="userSpaceOnUse" color-interpolation-filters="sRGB">
<feFlood flood-opacity="0" result="BackgroundImageFix"/>
<feColorMatrix in="SourceAlpha" type="matrix" values="0 0 0 0 0 0 0 0 0 0 0 0 0 0 0 0 0 0 127 0" result="hardAlpha"/>
<feOffset dx="4" dy="4"/>
<feGaussianBlur stdDeviation="2"/>
<feComposite in2="hardAlpha" operator="out"/>
<feColorMatrix type="matrix" values="0 0 0 0 0 0 0 0 0 0 0 0 0 0 0 0 0 0 0.25 0"/>
<feBlend mode="normal" in2="BackgroundImageFix" result="effect1_dropShadow_22_18"/>
<feBlend mode="normal" in="SourceGraphic" in2="effect1_dropShadow_22_18" result="shape"/>
</filter>
</defs>
</svg>
