<svg width="64" height="64" viewBox="0 0 64 64" fill="none" xmlns="http://www.w3.org/2000/svg">
<g filter="url(#filter0_d_22_17)">
<circle cx="28" cy="28" r="28" fill="#C4C4C4"/>
</g>
<path d="M28 12C19.1643 12 12 19.35 12 28.4071C12 35.6571 16.5857 41.8 22.9429 43.9714C23.032 43.9908 23.123 44.0004 23.2143 44C23.8071 44 24.0357 43.5643 24.0357 43.1857C24.0357 42.7929 24.0214 41.7643 24.0143 40.3929C23.485 40.5169 22.9436 40.5816 22.4 40.5857C19.3214 40.5857 18.6214 38.1929 18.6214 38.1929C17.8929 36.3 16.8429 35.7929 16.8429 35.7929C15.45 34.8143 16.8357 34.7857 16.9429 34.7857H16.95C18.5571 34.9286 19.4 36.4857 19.4 36.4857C20.2 37.8857 21.2714 38.2786 22.2286 38.2786C22.8615 38.2659 23.4845 38.1199 24.0571 37.85C24.2 36.7929 24.6143 36.0714 25.0714 35.6571C21.5214 35.2429 17.7857 33.8357 17.7857 27.55C17.7857 25.7571 18.4071 24.2929 19.4286 23.15C19.2643 22.7357 18.7143 21.0643 19.5857 18.8071C19.7026 18.7792 19.8227 18.7672 19.9429 18.7714C20.5214 18.7714 21.8286 18.9929 23.9857 20.4929C26.6068 19.7595 29.3789 19.7595 32 20.4929C34.1571 18.9929 35.4643 18.7714 36.0429 18.7714C36.163 18.7672 36.2831 18.7792 36.4 18.8071C37.2714 21.0643 36.7214 22.7357 36.5571 23.15C37.5786 24.3 38.2 25.7643 38.2 27.55C38.2 33.85 34.4571 35.2357 30.8929 35.6429C31.4643 36.15 31.9786 37.15 31.9786 38.6786C31.9786 40.8714 31.9571 42.6429 31.9571 43.1786C31.9571 43.5643 32.1786 44 32.7714 44C32.8674 44.0004 32.9632 43.9908 33.0571 43.9714C39.4214 41.8 44 35.65 44 28.4071C44 19.35 36.8357 12 28 12Z" fill="black"/>
<defs>
<filter id="filter0_d_22_17" x="0" y="0" width="64" height="64" filterUnits="userSpaceOnUse" color-interpolation-filters="sRGB">
<feFlood flood-opacity="0" result="BackgroundImageFix"/>
<feColorMatrix in="SourceAlpha" type="matrix" values="0 0 0 0 0 0 0 0 0 0 0 0 0 0 0 0 0 0 127 0" result="hardAlpha"/>
<feOffset dx="4" dy="4"/>
<feGaussianBlur stdDeviation="2"/>
<feComposite in2="hardAlpha" operator="out"/>
<feColorMatrix type="matrix" values="0 0 0 0 0 0 0 0 0 0 0 0 0 0 0 0 0 0 0.25 0"/>
<feBlend mode="normal" in2="BackgroundImageFix" result="effect1_dropShadow_22_17"/>
<feBlend mode="normal" in="SourceGraphic" in2="effect1_dropShadow_22_17" result="shape"/>
</filter>
</defs>
</svg>
