<svg width="48" height="48" viewBox="0 0 48 48" fill="none" xmlns="http://www.w3.org/2000/svg">
<path d="M37.899 22.9589C37.899 20.4149 36.984 18.6539 36.201 17.2829L35.961 16.8929C35.01 15.3629 34.179 14.0189 34.179 12.4529C34.179 10.5629 35.613 8.7989 37.635 8.7989C37.695 8.7989 37.752 8.8049 37.809 8.8079L37.902 8.8169C34.1105 5.33432 29.1482 3.40465 24 3.4109C20.588 3.40915 17.2292 4.25637 14.2262 5.87621C11.2233 7.49606 8.67052 9.83762 6.79803 12.6899C7.27803 12.7049 7.73703 12.7169 8.12403 12.7169C10.275 12.7169 13.608 12.4559 13.608 12.4559C14.718 12.3899 14.85 14.0189 13.74 14.1509C13.74 14.1509 12.627 14.2829 11.385 14.3459L18.885 36.6479L23.385 23.1299L20.175 14.3429C19.068 14.2769 18.018 14.1479 18.018 14.1479C16.908 14.0819 17.04 12.3839 18.147 12.4499C18.147 12.4499 21.549 12.7109 23.571 12.7109C25.725 12.7109 29.061 12.4499 29.061 12.4499C30.171 12.3839 30.3 14.0159 29.19 14.1479C29.19 14.1479 28.074 14.2769 26.835 14.3429L34.275 36.4739L36.327 29.6129L36.489 29.0939C37.299 26.5139 37.896 24.6089 37.896 22.9559L37.899 22.9589ZM3.41103 23.9999C3.41082 27.8661 4.49906 31.6543 6.55121 34.931C8.60337 38.2076 11.5365 40.8404 15.015 42.5279L5.19003 15.6179C4.01352 18.2555 3.40729 21.1118 3.41103 23.9999Z" fill="#F6F6F6"/>
<path d="M18.183 43.7491L24.363 25.8001L30.69 43.1401C30.732 43.2391 30.78 43.3321 30.837 43.4221C26.7583 44.859 22.3304 44.9734 18.183 43.7491ZM42.063 14.1211C42.153 14.7781 42.204 15.4801 42.204 16.2391C42.204 18.3271 41.814 20.6761 40.638 23.6131L34.35 41.7931C38.9901 39.0972 42.3936 34.6954 43.835 29.5261C45.2764 24.3569 44.6416 18.8291 42.066 14.1211H42.063Z" fill="#F6F6F6"/>
<path fill-rule="evenodd" clip-rule="evenodd" d="M0 24C0 10.767 10.767 0 24 0C37.23 0 48 10.767 48 24C48 37.233 37.23 48 24 48C10.767 48 0 37.233 0 24ZM1.101 24C1.101 36.627 11.373 46.899 24 46.899C36.624 46.899 46.896 36.627 46.896 24C46.896 11.37 36.624 1.101 24 1.101C11.37 1.101 1.101 11.37 1.101 24Z" fill="#F6F6F6"/>
</svg>
