<svg width="48" height="48" viewBox="0 0 48 48" fill="none" xmlns="http://www.w3.org/2000/svg">
<path d="M32.48 23.02L35.62 19.88L28.12 12.38L24.98 15.52L16.7 7.25998C15.14 5.69998 12.6 5.69998 11.04 7.25998L7.24 11.06C5.68 12.62 5.68 15.16 7.24 16.72L15.5 24.98L6.3 34.2C6.1 34.4 6 34.64 6 34.92V41C6 41.56 6.44 42 7 42H13.08C13.34 42 13.6 41.9 13.78 41.7L23.02 32.46L31.28 40.72C33.92 43.36 36.8 40.86 36.94 40.72L40.74 36.92C42.3 35.36 42.3 32.82 40.74 31.26L32.48 23.02ZM18.36 22.14L10.08 13.88L13.86 10.08L16.4 12.62L15.46 13.6C15.086 13.9739 14.876 14.4811 14.876 15.01C14.876 15.5388 15.086 16.046 15.46 16.42C15.834 16.7939 16.3411 17.004 16.87 17.004C17.3989 17.004 17.906 16.7939 18.28 16.42L19.24 15.46L22.14 18.36L18.36 22.14ZM34.12 37.92L25.86 29.66L29.66 25.86L32.56 28.76L31.6 29.72C31.4148 29.9051 31.268 30.125 31.1677 30.3669C31.0675 30.6088 31.016 30.8681 31.016 31.13C31.016 31.3918 31.0675 31.6511 31.1677 31.8931C31.268 32.135 31.4148 32.3548 31.6 32.54C31.7852 32.7251 32.005 32.872 32.2469 32.9722C32.4888 33.0724 32.7481 33.124 33.01 33.124C33.2719 33.124 33.5312 33.0724 33.7731 32.9722C34.015 32.872 34.2348 32.7251 34.42 32.54L35.38 31.58L37.92 34.12L34.12 37.92ZM41.42 14.08C41.6054 13.895 41.7525 13.6752 41.8529 13.4332C41.9532 13.1913 42.0049 12.9319 42.0049 12.67C42.0049 12.408 41.9532 12.1487 41.8529 11.9067C41.7525 11.6648 41.6054 11.445 41.42 11.26L36.74 6.57998C35.8 5.63998 34.5 5.99998 33.92 6.57998L30.26 10.24L37.76 17.74L41.42 14.08Z" fill="#F6F6F6"/>
</svg>
