<svg width="66" height="64" viewBox="0 0 66 64" fill="none" xmlns="http://www.w3.org/2000/svg">
<g clip-path="url(#clip0_12_3)">
<path d="M39.1308 21.6125C39.1248 21.6767 39.1163 21.7406 39.1139 21.8051C39.091 22.3636 39.1989 22.927 39.4349 23.4473L31.7514 30.5247L24.0672 37.6018C23.5105 37.2917 22.8875 37.1411 22.2638 37.1485L13.9813 12.9913C14.3319 12.8037 14.6635 12.5754 14.9638 12.2988C15.264 12.0223 15.5187 11.7104 15.7346 11.3763L39.1308 21.6125" fill="#191A1A"/>
<path d="M6.97473 40.4696L18.7942 41.5572C18.9321 42.1629 19.2228 42.7259 19.6553 43.1951C20.1101 43.689 20.6727 44.0231 21.2739 44.2023L21.5201 53.6606L21.6274 57.767C21.2827 57.9081 20.955 58.0986 20.6537 58.342L5.86383 42.2839C6.37324 41.7642 6.75107 41.1469 6.97473 40.4696Z" fill="#191A1A"/>
<path d="M11.5626 13.5466C11.6395 13.5496 11.7157 13.5456 11.7922 13.5446L20.1333 37.8732C20.0412 37.9431 19.9513 38.0168 19.8645 38.0969C19.4874 38.4437 19.1974 38.8592 18.9998 39.3161L7.15743 38.2266C7.01279 37.3154 6.60428 36.4659 5.96504 35.772C5.35509 35.1098 4.58639 34.6498 3.73901 34.418L10.5903 13.4041C10.9053 13.4835 11.2303 13.5329 11.5626 13.5466Z" fill="#191A1A"/>
<path d="M25.8921 41.1352C25.9598 40.5002 25.8617 39.8508 25.5919 39.257L40.9599 25.1022C41.5293 25.4194 42.1685 25.5703 42.8064 25.5552L51.6988 50.5068C51.3679 50.6902 51.0543 50.909 50.7689 51.1735C50.4839 51.4346 50.2404 51.7274 50.0312 52.0449L25.8921 41.1352Z" fill="#4D4F51"/>
<path d="M38.6238 5.69025C39.3276 6.45402 40.2424 6.94967 41.2464 7.13311L41.2564 7.53986L41.5129 18.5529C41.0662 18.7106 40.6433 18.9586 40.2732 19.2994C40.1864 19.3791 40.1056 19.4627 40.0284 19.5488L32.0083 16.04L16.466 9.24026C16.4727 9.16366 16.4836 9.08856 16.4868 9.01166C16.4999 8.68957 16.4801 8.37171 16.4304 8.06091L37.4277 3.20846C37.5685 4.12992 37.9787 4.98893 38.6243 5.69025" fill="#4D4F51"/>
<path d="M59.4758 21.3419C59.0362 21.7466 58.6873 22.2225 58.4323 22.7432L46.2512 21.2523C46.1274 20.6212 45.8377 20.0152 45.371 19.5089C44.9188 19.0178 44.3596 18.6848 43.7624 18.5049L43.4978 7.15781L43.4938 7.00506C44.1619 6.80044 44.7825 6.45225 45.3116 5.96471C45.3136 5.96371 45.3156 5.96071 45.3166 5.95971L59.4803 21.3373C59.4783 21.3383 59.4763 21.3403 59.4753 21.3423" fill="#191A1A"/>
<path d="M54.17 49.9247C54.0726 49.9207 53.9767 49.9247 53.8804 49.9247L44.9269 24.8023C45.0066 24.7402 45.086 24.6767 45.1615 24.6073C45.516 24.2806 45.7884 23.8982 45.981 23.4865L57.9557 24.9519C57.9853 26.0967 58.4178 27.1801 59.201 28.0303C59.7894 28.6691 60.5267 29.1189 61.3392 29.3581L55.0558 50.0446C54.7676 49.9776 54.472 49.9353 54.17 49.9247Z" fill="#191A1A"/>
<path d="M25.8801 58.723C25.3248 58.1197 24.6193 57.7387 23.8731 57.5765L23.5232 44.1483C23.967 43.9906 24.3864 43.7433 24.754 43.4047C24.8295 43.3348 24.8994 43.2611 24.9678 43.1866L49.2724 54.1686C49.2624 54.2674 49.2505 54.3627 49.2463 54.4579C49.2336 54.7719 49.2513 55.0788 49.2982 55.3822L26.7801 60.3916C26.627 59.7743 26.3225 59.2028 25.8801 58.723" fill="#191A1A"/>
<path d="M4.30983 37.2963C4.77444 37.8004 4.99069 38.4457 4.96459 39.0807C4.93848 39.7153 4.67002 40.3404 4.1659 40.8051C3.15695 41.7343 1.58604 41.6697 0.656819 40.6611C0.192211 40.1566 -0.0236949 39.5118 0.00205711 38.8768C0.0281671 38.2418 0.296627 37.6166 0.801099 37.152C1.80969 36.2228 3.38061 36.2874 4.30983 37.2963Z" fill="#191A1A"/>
<path d="M14.2381 8.91923C14.212 9.55423 13.9435 10.1793 13.439 10.644C12.4304 11.5728 10.8595 11.5083 9.9303 10.4997C9.46569 9.99519 9.24944 9.35032 9.27555 8.71532C9.30166 8.08032 9.57012 7.45519 10.0746 6.99058C11.0832 6.06136 12.6541 6.12593 13.5833 7.13488C14.0479 7.63935 14.2642 8.28423 14.2381 8.91923Z" fill="#191A1A"/>
<path d="M43.7878 4.30983C42.7792 5.23905 41.2079 5.17448 40.279 4.16554C39.8144 3.66142 39.5982 3.0162 39.6243 2.38155C39.6504 1.74655 39.9185 1.12143 40.423 0.656816C41.4319 -0.272404 43.0029 -0.207845 43.9321 0.800745C44.3967 1.30521 44.6126 1.9501 44.5865 2.5851C44.5607 3.2201 44.2922 3.84522 43.7878 4.30983Z" fill="#191A1A"/>
<path d="M60.8559 26.5059C60.3913 26.0014 60.1754 25.3566 60.2015 24.7216C60.2276 24.0866 60.4957 23.4614 61.0001 22.9968C62.0087 22.0676 63.58 22.1322 64.5092 23.1411C64.9735 23.6452 65.1897 24.2905 65.1636 24.9255C65.1375 25.5601 64.8694 26.1852 64.3649 26.6498C63.356 27.5791 61.7851 27.5145 60.8559 26.5059Z" fill="#191A1A"/>
<path d="M51.4946 54.5531C51.5207 53.9181 51.7892 53.2902 52.2933 52.8281C53.3022 51.8967 54.8732 51.9637 55.8024 52.9727C56.267 53.4736 56.4832 54.1192 56.4571 54.7542C56.431 55.3892 56.1625 56.0136 55.6581 56.4793C54.6495 57.4106 53.0786 57.3436 52.1493 56.3347C51.6847 55.8302 51.4685 55.1881 51.4946 54.5531Z" fill="#191A1A"/>
<path d="M21.3779 59.492C22.3869 58.5642 23.9578 58.6277 24.887 59.6367C25.3516 60.1411 25.5679 60.7867 25.5418 61.4217C25.5157 62.0567 25.2472 62.6812 24.7427 63.1468C23.7341 64.0746 22.1632 64.0111 21.234 63.0022C20.7694 62.4977 20.5532 61.8521 20.5793 61.2171C20.6054 60.5821 20.8738 59.9577 21.3779 59.492Z" fill="#191A1A"/>
</g>
<defs>
<clipPath id="clip0_12_3">
<rect width="65.1658" height="63.8029" fill="white"/>
</clipPath>
</defs>
</svg>
