<svg width="48" height="48" viewBox="0 0 48 48" fill="none" xmlns="http://www.w3.org/2000/svg">
<path d="M6.4 11.4272L5.8944 9.9104C5.51169 10.0379 5.19124 10.3052 4.99721 10.6588C4.80318 11.0125 4.74989 11.4263 4.848 11.8176L6.4 11.424V11.4272ZM13.9424 8.9152L15.3728 8.1984C15.2002 7.85458 14.9095 7.58446 14.5539 7.43753C14.1984 7.29061 13.8018 7.27671 13.4368 7.3984L13.9424 8.9152ZM29.0272 39.0848L27.5968 39.8016C27.6954 39.999 27.8338 40.1738 28.0032 40.3152C28.1727 40.4565 28.3695 40.5613 28.5814 40.6229C28.7932 40.6845 29.0156 40.7016 29.2344 40.6732C29.4532 40.6447 29.6637 40.5713 29.8528 40.4576L29.0272 39.0848ZM41.6 31.5424L42.4224 32.9152C42.6056 32.8054 42.765 32.66 42.8912 32.4876C43.0173 32.3152 43.1077 32.1193 43.1569 31.9114C43.2061 31.7035 43.2132 31.4879 43.1777 31.2772C43.1422 31.0665 43.065 30.8651 42.9504 30.6848L41.6 31.5424ZM32.8 17.7152L32.4128 16.1632C32.1672 16.225 31.9399 16.3442 31.7494 16.511C31.5588 16.6778 31.4106 16.8874 31.3169 17.1226C31.2232 17.3579 31.1867 17.612 31.2103 17.8641C31.2339 18.1162 31.317 18.3591 31.4528 18.5728L32.8 17.7152ZM37.8272 16.4576L39.1072 15.4976C38.9186 15.2465 38.6602 15.0565 38.3643 14.9512C38.0684 14.8459 37.7481 14.8301 37.4432 14.9056L37.8272 16.4576ZM41.6 21.4848L42.1056 23.0048C42.3465 22.9248 42.5649 22.7886 42.7427 22.6075C42.9206 22.4264 43.0528 22.2056 43.1285 21.9633C43.2041 21.721 43.2211 21.4642 43.1778 21.2141C43.1346 20.9639 43.0326 20.7277 42.88 20.5248L41.6 21.4848ZM11.4272 31.5424L9.8752 31.9296C9.92829 32.144 10.0252 32.3452 10.1599 32.5203C10.2945 32.6954 10.464 32.8408 10.6576 32.9472C10.8512 33.0536 11.0647 33.1188 11.2847 33.1386C11.5048 33.1585 11.7265 33.1325 11.936 33.0624L11.4272 31.5424ZM6.9056 12.9472L14.448 10.432L13.4368 7.3952L5.8944 9.9104L6.9056 12.9472ZM12.512 9.6288L21.8496 28.3072L24.7136 26.8768L15.3728 8.1984L12.512 9.6288ZM21.8496 28.3072L27.5968 39.8016L30.4608 38.3712L24.7136 26.8768L21.8496 28.3072ZM29.8496 40.4576L42.4256 32.9152L40.7776 30.1696L28.2048 37.7152L29.8528 40.4576H29.8496ZM42.9504 30.6848L37.6704 22.3872L34.9696 24.1056L40.2496 32.4032L42.9504 30.6848ZM37.6704 22.3872L34.1504 16.8544L31.4496 18.5728L34.9696 24.1056L37.6704 22.3872ZM33.1904 19.2672L38.2144 18.0096L37.44 14.9056L32.4128 16.1632L33.1872 19.2672H33.1904ZM36.5504 17.4176L40.32 22.4448L42.88 20.5248L39.1072 15.4976L36.5472 17.4176H36.5504ZM41.0944 19.968L35.8144 21.728L36.8256 24.7648L42.1056 23.0048L41.0944 19.968ZM35.8144 21.728L22.7744 26.0736L23.7888 29.1104L36.8256 24.7648L35.8144 21.728ZM22.7744 26.0736L10.9216 30.0256L11.936 33.0624L23.7888 29.1104L22.7744 26.0736ZM12.9824 31.1552L7.9488 11.04L4.8448 11.8176L9.872 31.9296L12.976 31.1552H12.9824ZM8 3.2H40V0H8V3.2ZM44.8 8V40H48V8H44.8ZM40 44.8H8V48H40V44.8ZM3.2 40V8H0V40H3.2ZM8 44.8C6.72696 44.8 5.50606 44.2943 4.60589 43.3941C3.70571 42.4939 3.2 41.273 3.2 40H0C0 42.1217 0.842855 44.1566 2.34315 45.6569C3.84344 47.1571 5.87827 48 8 48V44.8ZM44.8 40C44.8 41.273 44.2943 42.4939 43.3941 43.3941C42.4939 44.2943 41.273 44.8 40 44.8V48C42.1217 48 44.1566 47.1571 45.6569 45.6569C47.1571 44.1566 48 42.1217 48 40H44.8ZM40 3.2C41.273 3.2 42.4939 3.70571 43.3941 4.60589C44.2943 5.50606 44.8 6.72696 44.8 8H48C48 5.87827 47.1571 3.84344 45.6569 2.34315C44.1566 0.842855 42.1217 0 40 0V3.2ZM8 0C5.87827 0 3.84344 0.842855 2.34315 2.34315C0.842855 3.84344 0 5.87827 0 8H3.2C3.2 6.72696 3.70571 5.50606 4.60589 4.60589C5.50606 3.70571 6.72696 3.2 8 3.2V0Z" fill="#F6F6F6"/>
</svg>
