<svg width="30" height="30" viewBox="0 0 30 30" fill="none" xmlns="http://www.w3.org/2000/svg">
<path d="M22.5 10.4205C21.948 10.6605 21.3555 10.8255 20.733 10.8975C21.369 10.5225 21.855 9.92852 22.086 9.22202C21.4799 9.57521 20.8187 9.8237 20.13 9.95701C19.8403 9.65337 19.4918 9.41193 19.1058 9.24739C18.7197 9.08286 18.3042 8.99869 17.8845 9.00002C16.185 9.00002 14.808 10.3575 14.808 12.03C14.808 12.267 14.835 12.498 14.8875 12.72C13.6685 12.6621 12.4749 12.3508 11.383 11.8058C10.291 11.2609 9.32464 10.4943 8.5455 9.55502C8.27184 10.0157 8.12777 10.5417 8.1285 11.0775C8.1285 12.1275 8.673 13.0575 9.498 13.599C9.00967 13.5837 8.53179 13.4537 8.103 13.2195V13.257C8.10763 13.9612 8.3562 14.642 8.80638 15.1835C9.25655 15.7251 9.88051 16.0938 10.572 16.227C10.118 16.3471 9.64304 16.3645 9.1815 16.278C9.38269 16.8838 9.76751 17.4119 10.2825 17.7891C10.7976 18.1662 11.4172 18.3736 12.0555 18.3825C10.9604 19.2264 9.61596 19.6823 8.2335 19.6785C7.986 19.6785 7.7415 19.6635 7.5 19.6365C8.91071 20.5294 10.5464 21.0024 12.216 21C17.877 21 20.9715 16.383 20.9715 12.378L20.961 11.985C21.5644 11.5609 22.0859 11.0308 22.5 10.4205Z" fill="white"/>
<path d="M6 3C5.20435 3 4.44129 3.31607 3.87868 3.87868C3.31607 4.44129 3 5.20435 3 6V24C3 24.7956 3.31607 25.5587 3.87868 26.1213C4.44129 26.6839 5.20435 27 6 27H24C24.7956 27 25.5587 26.6839 26.1213 26.1213C26.6839 25.5587 27 24.7956 27 24V6C27 5.20435 26.6839 4.44129 26.1213 3.87868C25.5587 3.31607 24.7956 3 24 3H6ZM6 0H24C25.5913 0 27.1174 0.632141 28.2426 1.75736C29.3679 2.88258 30 4.4087 30 6V24C30 25.5913 29.3679 27.1174 28.2426 28.2426C27.1174 29.3679 25.5913 30 24 30H6C4.4087 30 2.88258 29.3679 1.75736 28.2426C0.632141 27.1174 0 25.5913 0 24V6C0 4.4087 0.632141 2.88258 1.75736 1.75736C2.88258 0.632141 4.4087 0 6 0Z" fill="white"/>
</svg>
