<svg width="319" height="349" viewBox="0 0 319 349" fill="none" xmlns="http://www.w3.org/2000/svg">
<path fill-rule="evenodd" clip-rule="evenodd" d="M150.134 2.8577L280.395 58.3358C285.096 60.3919 289.187 63.6249 292.275 67.7229C295.362 71.8208 297.341 76.6454 298.02 81.731L317.97 225.79C318.696 230.876 318.103 236.063 316.248 240.854C314.392 245.645 311.336 249.878 307.374 253.148L197.081 341.868C193.251 344.94 188.68 346.952 183.828 347.702L183.379 347.764C178.39 348.45 173.309 347.772 168.675 345.802L125.1 326.702C122.408 325.6 119.319 323.914 119.171 320.962C119.022 318.009 121.819 316.51 123.009 315.88C130.313 312.013 132.365 310.428 139.98 304.366L140.221 304.174C141.102 303.556 142.13 303.183 143.202 303.091C144.274 302.999 145.351 303.193 146.324 303.653L178.842 317.335C179.052 317.377 179.27 317.347 179.461 317.25L287.411 230.81C287.51 230.699 287.582 230.568 287.624 230.426C287.666 230.284 287.675 230.134 287.652 229.988L267.989 87.9955C267.968 87.8296 267.908 87.6712 267.813 87.5333C267.719 87.3955 267.592 87.2823 267.445 87.2032L139.916 31.5203C139.822 31.4889 139.722 31.4795 139.624 31.4931C139.526 31.5067 139.433 31.5428 139.351 31.5986L31.8225 119.833C31.6989 119.942 31.6032 120.079 31.5436 120.233C31.4839 120.387 31.462 120.553 31.4796 120.717L51.1475 262.74C51.1655 262.88 51.2178 263.014 51.2997 263.129C51.3817 263.244 51.4909 263.338 51.6175 263.401L84.3615 277.407C92.3789 280.232 99.0918 279.902 103.271 276.484C104.801 275.165 105.964 273.473 106.648 271.573C107.331 269.672 107.511 267.627 107.171 265.636L87.8282 125.957C87.5723 124.215 88.0177 122.443 89.0668 121.029C90.1159 119.616 91.683 118.676 93.4242 118.416L110.742 116.018C112.488 115.794 114.252 116.273 115.646 117.349C117.039 118.424 117.95 120.009 118.177 121.755L137.52 261.433C141.109 287.348 127.885 305.583 103.015 309.027C95.95 310.005 89.8524 310.85 72.7992 304.907L72.6073 304.831L38.4589 290.365C33.7555 288.303 29.6625 285.065 26.5747 280.962C23.4869 276.858 21.5084 272.029 20.83 266.939L0.880229 122.88C0.149727 117.8 0.741716 112.617 2.599 107.833C4.45628 103.049 7.51607 98.8243 11.4828 95.5679L121.774 6.78507C125.753 3.72393 130.461 1.75195 135.434 1.0633C140.406 0.374646 145.473 0.99308 150.134 2.8577ZM166.476 200.878C170.105 213.64 177.373 220.851 206.228 216.856C235.068 212.862 236.919 201.683 235.783 193.654C235.069 188.5 234.261 182.666 195.017 184.023C161.421 185.159 138.221 179.878 134.138 150.396C130.415 123.506 149.463 104.504 185.104 99.5683C224.32 94.1375 246.364 105.304 252.162 132.537C252.544 134.332 252.202 136.204 251.211 137.748C250.715 138.516 250.06 139.17 249.291 139.665C248.522 140.161 247.656 140.486 246.751 140.621L231.376 142.75C229.901 142.933 228.408 142.607 227.143 141.825C225.879 141.044 224.92 139.854 224.424 138.453C219.28 125.908 208.484 124.887 188.961 127.591C161.522 131.391 162.895 141.303 163.481 145.536C164.295 151.417 164.667 154.102 203.353 154.123C241.409 154.153 261.469 159.482 265.493 188.538C267.497 203.016 263.392 215.966 253.738 225.812C244.084 235.659 229.002 242.243 210.137 244.855C149.162 253.299 140.1 217.023 138.538 205.741C138.269 204.018 138.695 202.259 139.72 200.849C140.746 199.439 142.288 198.492 144.01 198.216L159.331 196.095C160.898 195.903 162.481 196.281 163.792 197.159C165.103 198.037 166.056 199.357 166.476 200.878Z" fill="black"/>
</svg>
