<svg width="416" height="254" viewBox="0 0 416 254" fill="none" xmlns="http://www.w3.org/2000/svg">
<path d="M404.803 79.712C401.886 77.3318 380.588 57.5984 369.106 46.9636C363 41.3105 358.178 36.8439 356.155 34.9945L355.992 34.8436L355.815 34.7025C351.15 30.7503 344.693 26.3762 336.072 27.57C334.673 27.7821 333.29 28.0896 331.932 28.4903C331.651 28.5686 331.364 28.6558 331.059 28.7296C329.192 29.2011 323.434 30.9684 309.762 35.2121C299.174 38.4845 283.211 43.4398 280.767 44.0149L280.224 44.1374L279.704 44.312C272.156 46.7611 267.509 50.9064 265.981 56.6153C265.175 59.6291 264.684 65.5888 270.384 71.6689C271.806 73.2229 276.694 78.335 285.095 87.117C290.685 92.968 296.964 99.5279 302.391 105.228L219.018 137.288L115.305 10.5134L115.113 10.2717L114.9 10.041L114.49 9.58513C110.328 4.98768 105.15 -0.738857 92.7215 0.982228C91.847 1.10333 90.9339 1.22978 89.9242 1.45636C86.3913 2.14279 73.5165 4.96681 58.6146 8.24506C42.1656 11.8559 19.6542 16.7952 16.7088 17.282L16.1438 17.3602L15.5411 17.5068C8.56343 19.175 3.83037 22.7565 1.47499 28.1303C-2.44815 37.1048 2.80771 45.8412 4.53002 48.7102C7.99202 54.5166 38.6752 101.296 65.7437 142.59C83.7389 170.021 102.321 198.388 103.87 200.918C106.636 205.662 110.771 209.459 115.733 211.811C120.695 214.163 126.252 214.959 131.675 214.095C134.24 213.729 136.758 213.089 139.187 212.188L139.35 212.165L139.499 212.105C149.862 208.004 182.693 194.656 206.106 185.064C207.932 187.43 209.856 189.932 211.868 192.5C232.964 219.944 248.307 239.784 253.14 244.722C255.635 247.366 263.005 255.021 274.659 253.407C278.884 252.822 282.604 251.203 286.53 249.484L287.668 248.987L287.761 248.974C295.588 245.524 398.783 192.461 403.997 189.223L404.157 189.122C408.108 186.674 414.079 182.977 415.027 175.471C415.648 170.558 413.845 165.91 409.66 161.655L409.596 161.593L409.532 161.531C408.756 160.771 405.878 157.928 401.964 153.982C393.605 145.62 380.101 132.111 368.254 120.367C381.213 115.023 397.196 108.386 400.586 106.78C409.094 102.897 411.001 96.9068 411.389 93.6668C411.662 91.1445 411.597 84.8046 404.803 79.712ZM163.406 159.036C150.07 164.171 140.779 167.753 135.038 169.983C128.447 160.375 115.513 141.416 102.887 122.91C73.4511 79.7283 58.2586 57.501 50.2773 45.8846L56.5092 44.4695C66.7092 42.15 80.6792 38.9771 88.4582 37.2295C104.457 57.3025 159.399 126.229 180.373 152.506L163.406 159.036ZM308.417 191.512C290.539 200.298 280.855 205.086 275.622 207.679C269.639 200.353 256.429 183.9 244.688 169.224L331.063 134.012C335.662 138.746 344.452 147.711 361.771 165.195C348.435 171.806 326.188 182.758 308.417 191.512ZM338.618 91.4014L316.852 69.548C327.174 66.2336 333.117 64.3222 336.595 63.1859L347.476 73.4149L358.304 83.6038C352.172 86.0225 345.039 88.848 338.618 91.4014Z" fill="black"/>
</svg>
