<svg width="40" height="40" viewBox="0 0 40 40" fill="none" xmlns="http://www.w3.org/2000/svg">
<path d="M25.4815 24.4618C25.2369 24.3818 23.6907 23.6849 24.6569 20.7479H24.643C27.1615 18.1541 29.0861 13.9802 29.0861 9.871C29.0861 3.55254 24.8846 0.240234 20.0015 0.240234C15.1154 0.240234 10.9369 3.551 10.9369 9.871C10.9369 13.9972 12.8507 18.1879 15.3846 20.7756C16.3723 23.3664 14.6061 24.3279 14.2369 24.4633C9.12305 26.3125 3.12305 29.6833 3.12305 33.011V34.2587C3.12305 38.7925 11.9138 39.8233 20.0492 39.8233C28.1969 39.8233 36.8769 38.7925 36.8769 34.2587V33.011C36.8769 29.5833 30.8477 26.2387 25.4815 24.4618Z" fill="#F6F6F6"/>
</svg>
